<svg width="256" height="256" viewBox="0 0 256 256" fill="none" xmlns="http://www.w3.org/2000/svg">
<path d="M78.4402 40.8418C98.0874 28.796 124.566 22.9738 146.467 32.2373C187.102 49.4253 191.973 102.782 160.308 131.142C158.559 132.708 156.823 134.481 154.87 135.8C179.396 148.503 187.405 176.063 175.534 200.594C170.685 210.613 159.807 218.941 149.277 222.057C132.795 226.933 107.778 226.059 101.595 206.385C100.973 204.34 100.575 202.233 100.412 200.102C99.9348 194.46 100.299 185.972 100.218 180.086C100.174 176.816 100.031 168.158 100.306 165.296C94.6396 168.202 89.0114 171.183 83.4246 174.24L83.4861 216.44L83.489 228.385C83.4908 235.221 84.4995 238.735 77.3972 241.999H73.8171C71.5404 240.823 69.1027 239.654 68.238 237.027C67.0613 233.452 67.6925 215.764 67.6912 210.98C67.6885 201.6 67.3042 192.045 67.8025 182.683C65.2118 184.076 57.52 188.497 55.1218 189.067C53.8588 189.362 52.5403 189.318 51.2996 188.94C49.1712 188.279 47.3924 186.798 46.3562 184.825C44.1333 180.593 45.9655 176.107 50.0222 173.896C55.8494 170.719 61.764 167.307 67.7038 164.355L67.7976 164.31C67.4906 152.558 67.7877 140.73 67.6872 128.962C67.6389 123.306 67.5364 117.123 67.865 111.503C67.9972 109.241 70.8542 106.187 72.9031 105.544C76.7624 103.998 82.7449 106.734 83.2263 111.104C83.7222 115.603 83.4646 120.944 83.4617 125.639L83.4538 155.828C87.8695 153.525 96.1221 148.772 100.328 147.023C100.079 129.395 100.311 111.374 100.31 93.711L100.289 76.5791C100.282 73.17 100.163 69.856 100.479 66.4571C101.111 59.6708 109.356 57.2228 114.027 61.7422C117.124 64.738 116.34 70.9418 116.34 75.0293L116.337 89.8994L116.332 138.578C134.595 129.981 155.063 121.315 162.283 100.758C166.339 89.2094 166.414 77.8642 161.149 66.6885C156.534 57.0039 148.252 49.5548 138.134 45.9883C123.446 40.7282 106.582 44.4463 92.8572 50.9473C75.7561 59.0477 62.1062 77.4876 55.8513 95.0567C52.9303 103.132 51.338 111.628 51.1365 120.213C51.0677 123.239 51.8023 128.367 51.0896 131.027C50.5201 133.209 48.9998 135.02 46.949 135.957C45.0292 136.864 42.8237 136.956 40.8347 136.214C35.1995 134.12 35.3958 128.173 35.3425 123.148C35.1186 110.376 37.5088 97.6929 42.366 85.878C49.2168 69.1625 62.7908 50.4367 78.4402 40.8418ZM149.119 151.066C145.087 149.125 140.847 147.974 136.387 148.569C128.271 149.558 123.119 153.892 116.312 156.747L116.347 186.844C116.353 189.33 116.337 191.818 116.317 194.299C116.289 197.896 115.962 201.773 118.744 204.544C121.911 207.698 127.776 208.137 132.028 208.135C135.998 208.123 139.952 207.637 143.806 206.686C151.773 204.061 157.952 200.075 161.7 192.454C168.853 177.909 164.311 158.382 149.119 151.066Z" fill="black"/>
<path d="M186.379 14H189.16C189.391 14.1229 189.62 14.2507 189.847 14.3831C198.131 19.2338 188.185 27.1729 185.596 32.9052C184.336 35.6953 182.536 37.2353 179.596 38C176.615 37.313 173.044 34.4673 174.361 31.5771C176.352 27.2086 182.638 16.3882 186.379 14Z" fill="black"/>
<path d="M187.42 203.216C193.113 202.076 198.694 205.562 199.863 210.99C201.033 216.416 197.346 221.715 191.642 222.803C185.977 223.884 180.459 220.401 179.297 215.011C178.135 209.62 181.765 204.348 187.42 203.216Z" fill="black"/>
<path d="M206.219 37C207.132 37.0411 208.04 37.1729 208.883 37.542C210.234 38.1464 211.283 39.259 211.796 40.6315C212.275 41.9199 212.123 43.4564 211.535 44.6855C211.208 45.3772 210.717 45.9807 210.102 46.4449C208.092 47.9866 195.83 54.1017 193.307 54.9937C188.033 55.2183 185.698 49.4086 187.915 47.0146C190.527 44.1952 202.463 38.0036 206.219 37Z" fill="black"/>
<path d="M195.843 67.0772C200.004 66.8111 209.976 67.2537 214.21 68.083C218.726 68.9677 219.938 75.816 214.311 78.7726C210.104 79.5794 202.851 77.9634 198.308 78.181C191.762 78.4946 189.493 70.0234 195.843 67.0772Z" fill="black"/>
</svg>
