<svg width="20" height="20" viewBox="0 0 20 20" fill="none" xmlns="http://www.w3.org/2000/svg">
  <path d="M10,1.8c2.7,0,3,0,4.1,0.1c1,0,1.5,0.2,1.9,0.3c0.5,0.2,0.8,0.4,1.2,0.8c0.4,0.4,0.6,0.7,0.8,1.2c0.1,0.4,0.3,0.9,0.3,1.9c0,1.1,0.1,1.4,0.1,4.1s0,3-0.1,4.1c0,1-0.2,1.5-0.3,1.9c-0.2,0.5-0.4,0.8-0.8,1.2c-0.4,0.4-0.7,0.6-1.2,0.8c-0.4,0.1-0.9,0.3-1.9,0.3c-1.1,0-1.4,0.1-4.1,0.1s-3,0-4.1-0.1c-1,0-1.5-0.2-1.9-0.3c-0.5-0.2-0.8-0.4-1.2-0.8c-0.4-0.4-0.6-0.7-0.8-1.2c-0.1-0.4-0.3-0.9-0.3-1.9c0-1.1-0.1-1.4-0.1-4.1s0-3,0.1-4.1c0-1,0.2-1.5,0.3-1.9c0.2-0.5,0.4-0.8,0.8-1.2C3.3,2.5,3.6,2.3,4.1,2.1c0.4-0.1,0.9-0.3,1.9-0.3C7.1,1.8,7.3,1.8,10,1.8z M10,0C7.3,0,7,0,5.9,0.1C4.8,0.1,4,0.3,3.3,0.6C2.6,0.9,2,1.3,1.3,2C0.6,2.7,0.2,3.3,0,4C-0.3,4.7-0.5,5.5-0.5,6.6C-0.6,7.7-0.6,8-0.6,10.7s0,3,0.1,4.1c0,1.1,0.2,1.9,0.5,2.6c0.3,0.7,0.7,1.3,1.3,2c0.7,0.7,1.3,1.1,2,1.3c0.7,0.3,1.5,0.5,2.6,0.5c1.1,0,1.4,0.1,4.1,0.1s3,0,4.1-0.1c1.1,0,1.9-0.2,2.6-0.5c0.7-0.3,1.3-0.7,2-1.3c0.7-0.7,1.1-1.3,1.3-2c0.3-0.7,0.5-1.5,0.5-2.6c0-1.1,0.1-1.4,0.1-4.1s0-3-0.1-4.1c0-1.1-0.2-1.9-0.5-2.6c-0.3-0.7-0.7-1.3-1.3-2c-0.7-0.7-1.3-1.1-2-1.3c-0.7-0.3-1.5-0.5-2.6-0.5C13,0,12.7,0,10,0z M10,4.9c-2.8,0-5.1,2.3-5.1,5.1s2.3,5.1,5.1,5.1s5.1-2.3,5.1-5.1S12.8,4.9,10,4.9z M10,13.3c-1.8,0-3.3-1.5-3.3-3.3S8.2,6.7,10,6.7s3.3,1.5,3.3,3.3S11.8,13.3,10,13.3z M16.4,4.7c0,0.7-0.5,1.2-1.2,1.2S14,5.3,14,4.7s0.5-1.2,1.2-1.2S16.4,4,16.4,4.7z" fill="currentColor"/>
</svg>
