<svg width="20" height="20" viewBox="0 0 20 20" fill="none" xmlns="http://www.w3.org/2000/svg">
  <path d="M17.5,3.3c-0.6,0.3-1.3,0.5-2,0.6c0.7-0.4,1.3-1.1,1.5-1.9c-0.7,0.4-1.4,0.7-2.2,0.8c-0.6-0.7-1.5-1.1-2.5-1.1c-1.9,0-3.4,1.5-3.4,3.4c0,0.3,0,0.5,0.1,0.8C6.4,5.7,4.1,4.4,2.6,2.4c-0.3,0.5-0.4,1.1-0.4,1.7c0,1.2,0.6,2.2,1.5,2.8C3.1,6.9,2.6,6.7,2.1,6.5v0c0,1.6,1.2,3,2.7,3.3C4.5,9.9,4.2,10,3.8,10c-0.2,0-0.4,0-0.6-0.1c0.4,1.3,1.6,2.2,3.1,2.2c-1.1,0.9-2.5,1.4-4.1,1.4c-0.3,0-0.5,0-0.8,0c1.5,1,3.2,1.5,5.1,1.5c6.1,0,9.5-5.1,9.5-9.5c0-0.1,0-0.3,0-0.4C16.6,4.6,17.1,4,17.5,3.3z" fill="currentColor"/>
</svg>
